<svg width="161" height="160" viewBox="0 0 161 160" fill="none" xmlns="http://www.w3.org/2000/svg">
<circle cx="80.3575" cy="79.9232" r="77.4232" stroke="#0378D6" stroke-width="5"/>
<g clip-path="url(#clip0_341_1695)">
<path d="M79.5559 59.5736L66.4496 70.266C64.2697 72.039 63.85 75.2303 65.5018 77.5079C67.2484 79.9355 70.6469 80.4128 72.9892 78.5717L86.4341 68.043C87.3818 67.3065 88.7358 67.4702 89.4805 68.4248C90.2252 69.3795 90.0491 70.7433 89.1014 71.4934L86.2716 73.7028L105.092 91.1597V65.4108H104.997L104.469 65.0698L94.6391 58.7281C92.5675 57.3915 90.1439 56.6823 87.6797 56.6823C84.7281 56.6823 81.8577 57.7052 79.5559 59.5736ZM82.643 76.5396L75.643 82.0221C71.378 85.3771 65.1904 84.5043 61.995 80.0855C58.9893 75.9259 59.7475 70.116 63.7146 66.8837L74.9795 57.7052C73.409 57.0369 71.7165 56.696 69.997 56.696C67.4515 56.6823 64.9738 57.4461 62.848 58.8645L53.0995 65.4108V95.9604H56.9177L69.2929 107.335C71.9467 109.776 76.0492 109.585 78.4728 106.912C79.2175 106.08 79.7184 105.112 79.9757 104.102L82.2774 106.23C84.9176 108.671 89.0337 108.494 91.4573 105.834C92.0666 105.166 92.5134 104.389 92.7977 103.584C95.4244 105.357 98.9988 104.989 101.206 102.561C103.629 99.9018 103.453 95.7558 100.813 93.3146L82.643 76.5396ZM48.7668 65.4108H35.7688V95.9604C35.7688 98.3744 37.705 100.325 40.1015 100.325H44.4342C46.8307 100.325 48.7668 98.3744 48.7668 95.9604V65.4108ZM42.2678 95.9604C41.0763 95.9604 40.1015 94.9784 40.1015 93.7783C40.1015 92.5781 41.0763 91.5962 42.2678 91.5962C43.4593 91.5962 44.4342 92.5781 44.4342 93.7783C44.4342 94.9784 43.4593 95.9604 42.2678 95.9604ZM109.424 65.4108V95.9604C109.424 98.3744 111.361 100.325 113.757 100.325H118.09C120.486 100.325 122.422 98.3744 122.422 95.9604V65.4108H109.424ZM118.09 93.7783C118.09 94.9784 117.115 95.9604 115.923 95.9604C114.732 95.9604 113.757 94.9784 113.757 93.7783C113.757 92.5781 114.732 91.5962 115.923 91.5962C117.115 91.5962 118.09 92.5781 118.09 93.7783Z" fill="#0378D6"/>
</g>
<defs>
<clipPath id="clip0_341_1695">
<rect width="86.6536" height="53.0017" fill="white" transform="translate(35.7688 56.3669)"/>
</clipPath>
</defs>
</svg>
