<svg width="161" height="160" viewBox="0 0 161 160" fill="none" xmlns="http://www.w3.org/2000/svg">
<circle cx="80.6698" cy="79.9232" r="77.4232" stroke="#0378D6" stroke-width="5"/>
<g clip-path="url(#clip0_341_1680)">
<path d="M57.2259 40.2409V45.4662H70.8289V40.2409H57.2259ZM59.1418 48.6013C56.2853 51.4891 51.661 56.6482 51.661 60.9677V67.7605H76.4025V60.9677C76.4025 56.6482 71.7869 51.4891 68.913 48.6013H59.1418ZM51.661 70.8957V73.6825H76.4025V70.8957H51.661ZM51.661 76.8176V79.6044H76.4025V76.8176H51.661ZM51.661 82.7396V85.5264H76.4025V82.7396H51.661ZM51.661 88.6615V118.306C59.1592 120.518 68.8956 120.518 76.4025 118.306V88.6615H51.661ZM90.8242 94.5835L93.3149 119.316H96.1714L94.9696 98.6766L98.1047 98.5024L99.3065 119.316H107.197L109.687 94.5835H90.8242Z" fill="#0378D6"/>
</g>
<defs>
<clipPath id="clip0_341_1680">
<rect width="57.2082" height="79.9232" fill="white" transform="translate(52.0657 40.3822)"/>
</clipPath>
</defs>
</svg>
