<svg width="32" height="32" viewBox="0 0 32 32" fill="none" xmlns="http://www.w3.org/2000/svg">
<path d="M21.3222 4.00526H17.77C13.2458 3.95995 12.668 6.76276 12.668 9.79614V12.0019H10.6709C10.5806 11.9898 10.4888 11.9987 10.4025 12.0279C10.3162 12.0572 10.2379 12.1059 10.1735 12.1704C10.1091 12.2348 10.0604 12.3133 10.0312 12.3996C10.002 12.486 9.9931 12.5779 10.0052 12.6683V16.6666C9.9931 16.7569 10.002 16.8488 10.0312 16.9352C10.0604 17.0215 10.1091 17.1 10.1735 17.1645C10.2379 17.2289 10.3162 17.2777 10.4025 17.3069C10.4888 17.3361 10.5806 17.345 10.6709 17.3329H12.668V27.3287C12.6569 27.4192 12.6666 27.5111 12.6964 27.5973C12.7262 27.6835 12.7753 27.7617 12.8399 27.826C12.9045 27.8903 12.983 27.9389 13.0692 27.9683C13.1555 27.9976 13.2473 28.0067 13.3377 27.9951H17.4052C17.798 28.0404 18.1162 27.7219 17.991 27.3287L17.9937 17.3329H21.3222C21.4125 17.345 21.5043 17.3361 21.5906 17.3069C21.6768 17.2777 21.7552 17.2289 21.8196 17.1645C21.884 17.1 21.9327 17.0215 21.9619 16.9352C21.9911 16.8488 22 16.7569 21.9879 16.6666V12.6683C22 12.5779 21.9911 12.486 21.9619 12.3996C21.9327 12.3133 21.884 12.2348 21.8196 12.1704C21.7552 12.1059 21.6768 12.0572 21.5906 12.0279C21.5043 11.9987 21.4125 11.9898 21.3222 12.0019H17.9897L17.9937 10.0027C18.1228 9.15108 18.1228 9.28969 18.9124 9.33633H21.2943C21.4793 9.29502 21.6764 9.31768 21.8148 9.18307C21.9533 9.04846 22.0332 8.86453 21.9866 8.66995V4.67164C21.9989 4.58136 21.9902 4.48945 21.9612 4.40309C21.9321 4.31672 21.8836 4.23823 21.8193 4.17374C21.755 4.10924 21.6767 4.06048 21.5905 4.03126C21.5042 4.00204 21.4124 3.99314 21.3222 4.00526ZM20.6099 7.92893L18.9403 7.86496C16.8726 7.86496 16.6995 8.98848 16.6995 10.1387L16.6942 12.6656C16.694 12.7592 16.7123 12.8519 16.7479 12.9384C16.7836 13.0249 16.8359 13.1035 16.902 13.1697C16.968 13.2359 17.0465 13.2885 17.1328 13.3243C17.2191 13.3602 17.3117 13.3786 17.4052 13.3786H20.6565V15.9535H17.4078C17.2192 15.9535 17.0382 16.0285 16.9046 16.1619C16.7711 16.2953 16.6959 16.4764 16.6955 16.6652L16.6942 26.6623H13.9994V16.6666C13.9994 16.2734 13.7318 15.9549 13.3377 15.9549H11.3366V13.38H13.3377C13.4311 13.3801 13.5237 13.3618 13.61 13.3261C13.6964 13.2905 13.7748 13.2381 13.841 13.172C13.9741 13.0374 13.9981 12.8562 13.9981 12.6669V9.79481C13.9981 6.80674 14.6012 5.38334 17.7687 5.38334H20.6086V7.92893H20.6099Z" fill="white"/>
</svg>
