<svg width="90" height="90" viewBox="0 0 90 90" fill="none" xmlns="http://www.w3.org/2000/svg">
<path d="M45 28.125C41.6624 28.125 38.3998 29.1147 35.6248 30.969C32.8497 32.8232 30.6868 35.4587 29.4095 38.5422C28.1323 41.6257 27.7981 45.0187 28.4492 48.2921C29.1004 51.5656 30.7076 54.5724 33.0676 56.9324C35.4276 59.2924 38.4344 60.8996 41.7079 61.5508C44.9813 62.2019 48.3743 61.8677 51.4578 60.5905C54.5413 59.3132 57.1768 57.1503 59.031 54.3752C60.8853 51.6002 61.875 48.3376 61.875 45C61.875 40.5245 60.0971 36.2322 56.9324 33.0676C53.7678 29.9029 49.4755 28.125 45 28.125ZM45 56.25C42.775 56.25 40.5999 55.5902 38.7498 54.354C36.8998 53.1179 35.4578 51.3609 34.6064 49.3052C33.7549 47.2495 33.5321 44.9875 33.9662 42.8052C34.4002 40.6229 35.4717 38.6184 37.045 37.045C38.6184 35.4717 40.6229 34.4002 42.8052 33.9662C44.9875 33.5321 47.2495 33.7549 49.3052 34.6064C51.3609 35.4578 53.1179 36.8998 54.354 38.7498C55.5902 40.5999 56.25 42.775 56.25 45C56.2407 47.9808 55.0525 50.8369 52.9447 52.9447C50.8369 55.0525 47.9808 56.2407 45 56.25ZM60.4688 9.84375H29.5312C24.3098 9.84375 19.3022 11.918 15.6101 15.6101C11.918 19.3022 9.84375 24.3098 9.84375 29.5312V60.4688C9.84375 65.6902 11.918 70.6978 15.6101 74.3899C19.3022 78.082 24.3098 80.1562 29.5312 80.1562H60.4688C65.6902 80.1562 70.6978 78.082 74.3899 74.3899C78.082 70.6978 80.1562 65.6902 80.1562 60.4688V29.5312C80.1562 24.3098 78.082 19.3022 74.3899 15.6101C70.6978 11.918 65.6902 9.84375 60.4688 9.84375V9.84375ZM74.5312 60.4688C74.5313 62.3155 74.1675 64.1441 73.4608 65.8502C72.7541 67.5564 71.7183 69.1066 70.4124 70.4124C69.1066 71.7183 67.5564 72.7541 65.8502 73.4608C64.1441 74.1675 62.3155 74.5312 60.4688 74.5312H29.5312C27.6845 74.5313 25.8559 74.1675 24.1498 73.4608C22.4436 72.7541 20.8934 71.7183 19.5876 70.4124C18.2817 69.1066 17.2459 67.5564 16.5392 65.8502C15.8325 64.1441 15.4688 62.3155 15.4688 60.4688V29.5312C15.4688 25.8016 16.9503 22.2248 19.5876 19.5876C22.2248 16.9503 25.8016 15.4688 29.5312 15.4688H60.4688C62.3155 15.4688 64.1441 15.8325 65.8502 16.5392C67.5564 17.2459 69.1066 18.2817 70.4124 19.5876C71.7183 20.8934 72.7541 22.4436 73.4608 24.1498C74.1675 25.8559 74.5312 27.6845 74.5312 29.5312V60.4688ZM67.5 26.7188C67.5 27.5531 67.2526 28.3688 66.789 29.0626C66.3254 29.7563 65.6666 30.2971 64.8957 30.6164C64.1248 30.9357 63.2766 31.0192 62.4582 30.8564C61.6399 30.6937 60.8881 30.2919 60.2981 29.7019C59.7081 29.1119 59.3063 28.3601 59.1436 27.5418C58.9808 26.7234 59.0643 25.8752 59.3836 25.1043C59.7029 24.3334 60.2437 23.6745 60.9374 23.211C61.6312 22.7474 62.4469 22.5 63.2812 22.5C64.4001 22.5 65.4732 22.9445 66.2644 23.7356C67.0555 24.5268 67.5 25.5999 67.5 26.7188Z" fill="white"/>
</svg>
