<svg width="164" height="164" viewBox="0 0 164 164" fill="none" xmlns="http://www.w3.org/2000/svg">
<circle cx="81.7716" cy="81.5543" r="79.0543" stroke="#0378D6" stroke-width="5"/>
<path d="M110.388 62.2034H103.382V103.164C103.382 104.308 103.836 105.404 104.644 106.213C105.453 107.021 106.55 107.476 107.693 107.476C108.837 107.476 109.933 107.021 110.742 106.213C111.551 105.404 112.005 104.308 112.005 103.164V63.8203C112.005 63.3915 111.835 62.9802 111.531 62.677C111.228 62.3738 110.817 62.2034 110.388 62.2034Z" fill="#0378D6"/>
<path d="M105.423 111.484C103.599 110.984 101.99 109.899 100.843 108.396C99.6949 106.893 99.0722 105.055 99.07 103.164V53.0412C99.07 52.6123 98.8996 52.2011 98.5964 51.8979C98.2932 51.5946 97.8819 51.4243 97.4531 51.4243H53.2587C52.8299 51.4243 52.4186 51.5946 52.1154 51.8979C51.8122 52.2011 51.6418 52.6123 51.6418 53.0412V104.242C51.6418 106.243 52.4368 108.162 53.8518 109.577C55.2669 110.992 57.1861 111.787 59.1872 111.787H105.382C105.421 111.789 105.458 111.776 105.487 111.751C105.517 111.727 105.536 111.692 105.541 111.654C105.546 111.616 105.536 111.578 105.515 111.546C105.493 111.515 105.46 111.493 105.423 111.484V111.484ZM60.2651 75.1383V62.2034H73.2001V75.1383H60.2651ZM90.4467 101.008H60.2651V96.6966H90.4467V101.008ZM90.4467 92.3849H60.2651V88.0733H90.4467V92.3849ZM90.4467 83.7616H60.2651V79.45H90.4467V83.7616ZM90.4467 75.1383H77.5117V70.8267H90.4467V75.1383ZM90.4467 66.5151H77.5117V62.2034H90.4467V66.5151Z" fill="#0378D6"/>
</svg>
