<svg width="48" height="48" viewBox="0 0 48 48" fill="none" xmlns="http://www.w3.org/2000/svg">
<path d="M40.5 5.5H7.5C6.96957 5.5 6.46086 5.71071 6.08579 6.08579C5.71071 6.46086 5.5 6.96957 5.5 7.5V40.5C5.5 41.0304 5.71071 41.5391 6.08579 41.9142C6.46086 42.2893 6.96957 42.5 7.5 42.5H40.5C41.0304 42.5 41.5391 42.2893 41.9142 41.9142C42.2893 41.5391 42.5 41.0304 42.5 40.5V7.5C42.5 6.96957 42.2893 6.46086 41.9142 6.08579C41.5391 5.71071 41.0304 5.5 40.5 5.5V5.5Z" stroke="white" stroke-linecap="round" stroke-linejoin="round"/>
<path d="M42.5 20.5H24.5C23.9744 20.4988 23.4537 20.6015 22.9679 20.8021C22.482 21.0027 22.0406 21.2973 21.6689 21.6689C21.2973 22.0406 21.0027 22.482 20.8021 22.9679C20.6015 23.4537 20.4988 23.9744 20.5 24.5V42.5L42.5 20.5Z" stroke="white" stroke-linecap="round" stroke-linejoin="round"/>
</svg>
