<svg width="23" height="23" viewBox="0 0 23 23" fill="none" xmlns="http://www.w3.org/2000/svg">
<path d="M5.17133 2.8356C5.17133 4.12552 4.12564 5.17121 2.83573 5.17121C1.54581 5.17121 0.500122 4.12552 0.500122 2.8356C0.500122 1.54569 1.54581 0.5 2.83573 0.5C4.12564 0.5 5.17133 1.54569 5.17133 2.8356Z" stroke="white"/>
<path d="M0.5 22.1884V8.06519H5.17121V22.1884H0.5Z" stroke="white"/>
<path d="M19.1199 7.2519L19.12 7.25194C19.8056 7.48656 20.5488 7.92245 21.1302 8.73151C21.7117 9.54057 22.1612 10.7641 22.1875 12.6256V22.0533H17.5163V13.5739C17.5163 12.3665 17.0032 11.3366 15.9835 10.9056C14.9682 10.4744 13.7859 10.7574 12.9092 11.5126L12.7355 11.6622V11.8915V22.0533H8.06427V7.93012H12.7415L12.9175 8.61829L13.5123 8.19048C14.9206 7.17756 17.2799 6.62162 19.1199 7.2519Z" stroke="white"/>
</svg>
