<svg width="100" height="72" viewBox="0 0 100 72" fill="none" xmlns="http://www.w3.org/2000/svg">
<path d="M18.6135 24.2373V10.4191H28.2485V13.1315H21.9534V15.9653H27.7559V18.6844H21.9534V21.5249H28.2485V24.2373H18.6135ZM37.7325 16.0597V18.5967H31.3362V16.0597H37.7325ZM53.365 15.4255H49.9914C49.9464 15.0792 49.8542 14.7665 49.7148 14.4877C49.5753 14.2088 49.3909 13.9704 49.1615 13.7725C48.9321 13.5745 48.66 13.4239 48.3451 13.3204C48.0347 13.2124 47.6906 13.1585 47.3128 13.1585C46.6426 13.1585 46.0645 13.3226 45.5787 13.651C45.0975 13.9794 44.7264 14.4539 44.4655 15.0747C44.2091 15.6954 44.0809 16.4466 44.0809 17.3282C44.0809 18.2458 44.2113 19.015 44.4722 19.6357C44.7376 20.252 45.1087 20.7175 45.5855 21.0324C46.0668 21.3428 46.6358 21.498 47.2925 21.498C47.6614 21.498 47.9965 21.4507 48.2979 21.3563C48.6037 21.2618 48.8714 21.1246 49.1008 20.9447C49.3347 20.7603 49.5258 20.5376 49.6743 20.2767C49.8272 20.0113 49.9329 19.7122 49.9914 19.3794L53.365 19.3996C53.3065 20.0113 53.1288 20.6141 52.8319 21.2078C52.5396 21.8016 52.137 22.3436 51.6242 22.8339C51.1114 23.3197 50.4862 23.7065 49.7485 23.9944C49.0153 24.2823 48.1742 24.4262 47.2251 24.4262C45.9746 24.4262 44.8546 24.1518 43.865 23.6031C42.8799 23.0498 42.1017 22.2446 41.5305 21.1876C40.9592 20.1305 40.6736 18.8441 40.6736 17.3282C40.6736 15.8079 40.9637 14.5191 41.5439 13.4621C42.1242 12.405 42.9091 11.6021 43.8987 11.0534C44.8883 10.5046 45.9971 10.2302 47.2251 10.2302C48.0617 10.2302 48.8354 10.3472 49.5461 10.5811C50.2568 10.8105 50.882 11.1478 51.4218 11.5931C51.9616 12.0339 52.4001 12.576 52.7375 13.2192C53.0748 13.8624 53.284 14.5979 53.365 15.4255ZM58.6726 24.2373H55.0831L59.7454 10.4191H64.1917L68.854 24.2373H65.2645L62.0191 13.9007H61.9112L58.6726 24.2373ZM58.1935 18.7991H65.6963V21.336H58.1935V18.7991ZM71.1018 24.2373V10.4191H76.8099C77.8444 10.4191 78.7373 10.6058 79.4885 10.9791C80.2442 11.348 80.8267 11.8788 81.236 12.5715C81.6453 13.2597 81.85 14.0761 81.85 15.0207C81.85 15.9788 81.6408 16.7929 81.2225 17.4632C80.8042 18.1289 80.2104 18.6372 79.4413 18.988C78.6721 19.3344 77.7612 19.5075 76.7087 19.5075H73.0989V16.8762H76.0879C76.5917 16.8762 77.0123 16.8109 77.3496 16.6805C77.6915 16.5455 77.9501 16.3431 78.1256 16.0732C78.301 15.7989 78.3887 15.448 78.3887 15.0207C78.3887 14.5934 78.301 14.2403 78.1256 13.9614C77.9501 13.678 77.6915 13.4666 77.3496 13.3271C77.0078 13.1832 76.5872 13.1112 76.0879 13.1112H74.4416V24.2373H71.1018ZM78.8812 17.922L82.3223 24.2373H78.6788L75.3052 17.922H78.8812Z" fill="#0D38AA"/>
<path d="M22.8703 35.8549L27.7495 51.835H27.9306L32.8099 35.8549H38.7119L31.3504 57.673H24.3298L16.9683 35.8549H22.8703ZM41.5472 40.1375V35.8549H59.9882V40.1375H53.3725V57.673H48.1736V40.1375H41.5472ZM82.5723 43.7597H77.2456C77.1746 43.2128 77.029 42.7192 76.8088 42.2789C76.5886 41.8385 76.2974 41.4621 75.9352 41.1496C75.573 40.8371 75.1433 40.5992 74.6462 40.4358C74.1561 40.2654 73.6128 40.1801 73.0162 40.1801C71.9579 40.1801 71.0453 40.4394 70.2783 40.9578C69.5183 41.4763 68.9324 42.2256 68.5204 43.2057C68.1156 44.1858 67.9132 45.3719 67.9132 46.7639C67.9132 48.2128 68.1192 49.4273 68.5311 50.4074C68.9501 51.3804 69.5361 52.1155 70.2889 52.6127C71.0489 53.1027 71.9473 53.3478 72.9842 53.3478C73.5666 53.3478 74.0957 53.2732 74.5716 53.124C75.0545 52.9749 75.4771 52.7583 75.8393 52.4742C76.2087 52.183 76.5105 51.8314 76.7449 51.4195C76.9864 51.0004 77.1533 50.5281 77.2456 50.0026L82.5723 50.0345C82.48 51.0004 82.1994 51.9522 81.7307 52.8897C81.269 53.8272 80.6334 54.683 79.8237 55.4571C79.0141 56.2242 78.0268 56.835 76.8621 57.2895C75.7044 57.7441 74.3763 57.9713 72.8777 57.9713C70.9033 57.9713 69.1348 57.5381 67.5723 56.6716C66.0169 55.798 64.7882 54.5267 63.8862 52.8577C62.9842 51.1887 62.5332 49.1574 62.5332 46.7639C62.5332 44.3634 62.9913 42.3286 63.9075 40.6595C64.8237 38.9905 66.0631 37.7228 67.6256 36.8563C69.1881 35.9898 70.9388 35.5566 72.8777 35.5566C74.1987 35.5566 75.4203 35.7412 76.5425 36.1105C77.6646 36.4727 78.6518 37.0054 79.5041 37.7085C80.3564 38.4046 81.0489 39.2604 81.5815 40.276C82.1142 41.2916 82.4445 42.4529 82.5723 43.7597Z" fill="#0D38AA"/>
</svg>
