<svg width="68" height="57" viewBox="0 0 68 57" fill="none" xmlns="http://www.w3.org/2000/svg">
<path d="M7.02703 5.52661L31.2432 18.5304L27.5676 22.4316L43.7838 30.4506L15.8919 24.3821L19.8919 20.1559L0 13.0038L7.02703 5.52661Z" fill="white"/>
<path d="M39.5676 0C32.2378 0 25.5351 2.79582 20.4973 7.36882L28.2811 11.5517C31.5243 9.40608 35.3946 8.14905 39.5676 8.14905C50.8541 8.14905 60 17.3167 60 28.63C60 39.9433 50.8541 49.111 39.5676 49.111C28.627 49.111 19.6757 40.4852 19.1568 29.627L11.1351 27.8932C11.1351 28.1099 11.1351 28.3049 11.1351 28.5217C11.1351 44.2346 23.8703 57 39.5676 57C55.2649 57 68 44.2346 68 28.5C68 12.7654 55.2649 0 39.5676 0Z" fill="white"/>
</svg>
