<svg width="89" height="74" viewBox="0 0 89 74" fill="none" xmlns="http://www.w3.org/2000/svg">
<path d="M9.5938 7.57794L40.9324 24.2319L36.1757 29.2281L57.1614 39.4981L21.066 31.7262L26.2424 26.3137L0.5 17.154L9.5938 7.57794Z" fill="#0D38AA"/>
<path d="M51.7051 0.5C42.2195 0.5 33.5454 4.08061 27.0259 9.93726L37.099 15.2943C41.2962 12.5464 46.3047 10.9365 51.7051 10.9365C66.3111 10.9365 78.147 22.6776 78.147 37.1665C78.147 51.6555 66.3111 63.3966 51.7051 63.3966C37.5467 63.3966 25.9626 52.3494 25.2911 38.4433L14.9102 36.2228C14.9102 36.5004 14.9102 36.7502 14.9102 37.0278C14.9102 57.1513 31.3909 73.5 51.7051 73.5C72.0192 73.5 88.5 57.1513 88.5 37C88.5 16.8487 72.0192 0.5 51.7051 0.5Z" fill="url(#paint0_linear_422_1452)"/>
<defs>
<linearGradient id="paint0_linear_422_1452" x1="4.50436" y1="13.2772" x2="83.5364" y2="53.6427" gradientUnits="userSpaceOnUse">
<stop offset="0.0232959" stop-color="#0089E1"/>
<stop offset="1" stop-color="#0D38AA"/>
</linearGradient>
</defs>
</svg>
