<svg width="47" height="47" viewBox="0 0 47 47" fill="none" xmlns="http://www.w3.org/2000/svg">
<g clip-path="url(#clip0_4_2654)">
<path d="M36.6704 18.2812C36.6704 14.9246 35.337 11.7054 32.9635 9.33193C30.59 6.95842 27.3708 5.625 24.0142 5.625C20.6575 5.625 17.4383 6.95842 15.0648 9.33193C12.6913 11.7054 11.3579 14.9246 11.3579 18.2812C11.3579 23.4731 15.512 30.24 24.0142 38.3456C32.5163 30.24 36.6704 23.4731 36.6704 18.2812ZM24.0142 42.1875C13.7007 32.8134 8.54541 24.8428 8.54541 18.2812C8.54541 14.1787 10.1751 10.2441 13.0761 7.34319C15.9771 4.44224 19.9116 2.8125 24.0142 2.8125C28.1167 2.8125 32.0513 4.44224 34.9522 7.34319C37.8532 10.2441 39.4829 14.1787 39.4829 18.2812C39.4829 24.8428 34.3276 32.8134 24.0142 42.1875Z" fill="black"/>
<path d="M24.0142 22.5C25.133 22.5 26.2061 22.0555 26.9973 21.2644C27.7884 20.4732 28.2329 19.4001 28.2329 18.2812C28.2329 17.1624 27.7884 16.0893 26.9973 15.2981C26.2061 14.507 25.133 14.0625 24.0142 14.0625C22.8953 14.0625 21.8222 14.507 21.0311 15.2981C20.2399 16.0893 19.7954 17.1624 19.7954 18.2812C19.7954 19.4001 20.2399 20.4732 21.0311 21.2644C21.8222 22.0555 22.8953 22.5 24.0142 22.5ZM24.0142 25.3125C22.1494 25.3125 20.3609 24.5717 19.0423 23.2531C17.7237 21.9345 16.9829 20.1461 16.9829 18.2812C16.9829 16.4164 17.7237 14.628 19.0423 13.3094C20.3609 11.9908 22.1494 11.25 24.0142 11.25C25.879 11.25 27.6674 11.9908 28.986 13.3094C30.3046 14.628 31.0454 16.4164 31.0454 18.2812C31.0454 20.1461 30.3046 21.9345 28.986 23.2531C27.6674 24.5717 25.879 25.3125 24.0142 25.3125Z" fill="black"/>
</g>
<defs>
<clipPath id="clip0_4_2654">
<rect width="46.1447" height="47" fill="white"/>
</clipPath>
</defs>
</svg>
