<svg width="23" height="18" viewBox="0 0 23 18" fill="none" xmlns="http://www.w3.org/2000/svg">
<path d="M20.0795 0.688599C20.2202 0.544979 20.3882 0.430885 20.5736 0.352995C20.759 0.275105 20.9581 0.234985 21.1592 0.234985C21.3603 0.234985 21.5593 0.275105 21.7447 0.352995C21.9301 0.430885 22.0981 0.544979 22.2389 0.688599C22.8288 1.28466 22.837 2.24785 22.2595 2.85422L10.064 17.2711C9.92549 17.4232 9.75746 17.5454 9.57014 17.6302C9.38283 17.7151 9.18017 17.7609 8.97455 17.7647C8.76894 17.7686 8.5647 17.7305 8.37433 17.6527C8.18396 17.5749 8.01146 17.4591 7.86739 17.3124L0.446515 9.79248C0.160316 9.5006 0 9.10813 0 8.69935C0 8.29057 0.160316 7.8981 0.446515 7.60622C0.587272 7.4626 0.755268 7.34851 0.940666 7.27062C1.12606 7.19273 1.32514 7.15261 1.52623 7.15261C1.72733 7.15261 1.9264 7.19273 2.1118 7.27062C2.2972 7.34851 2.46519 7.4626 2.60595 7.60622L8.9007 13.9855L20.0382 0.733974C20.051 0.718035 20.0648 0.702882 20.0795 0.688599Z" fill="#0D38AA"/>
</svg>
