<svg width="160" height="160" viewBox="0 0 160 160" fill="none" xmlns="http://www.w3.org/2000/svg">
<circle cx="79.9343" cy="79.9232" r="77.4232" stroke="#0378D6" stroke-width="5"/>
<g clip-path="url(#clip0_341_1686)">
<path d="M74.5692 60.6227H101.384C104.667 60.6225 107.826 61.7527 110.215 63.782C112.604 65.8113 114.041 68.5863 114.234 71.5392L114.255 72.2196V76.0852L118.546 76.1548C119.594 76.1545 120.606 76.4999 121.391 77.1259C122.176 77.7519 122.679 78.6152 122.806 79.5527L122.84 80.0166V87.7478C122.842 88.684 122.466 89.5887 121.782 90.294C121.099 90.9992 120.155 91.4571 119.125 91.5825L118.55 91.6173L114.255 91.5477V95.4134C114.256 98.3714 113.001 101.218 110.749 103.37C108.497 105.522 105.417 106.817 102.139 106.991L101.384 107.01H62.7491C61.9716 107.01 61.2203 106.757 60.6343 106.296C60.0483 105.836 59.6671 105.199 59.5614 104.505L59.5313 104.111V86.7157C59.5315 86.0145 59.8137 85.3371 60.3257 84.8091C60.8377 84.281 61.5447 83.938 62.3158 83.8435L62.7491 83.8165H65.4435C68.5154 83.8165 71.0382 81.7058 71.3214 79.0038L71.3514 78.4935V63.5219C71.3514 62.8213 71.633 62.1444 72.1441 61.6164C72.6552 61.0884 73.3612 60.745 74.1316 60.6497L74.5692 60.6227H101.384H74.5692ZM56.9571 52.9185L57.3947 52.8914C58.1723 52.8914 58.9236 53.1452 59.5096 53.6057C60.0956 54.0662 60.4767 54.7023 60.5825 55.3963L60.6125 55.7906L60.6082 60.6227H63.8604C64.7138 60.6227 65.5322 60.9281 66.1357 61.4718C66.7391 62.0156 67.0782 62.753 67.0782 63.5219V73.1821C67.0782 74.9763 66.2871 76.6969 64.8791 77.9656C63.471 79.2342 61.5613 79.947 59.57 79.947L55.2667 79.9431V104.084C55.2668 104.784 54.9858 105.46 54.4756 105.988C53.9654 106.516 53.2604 106.86 52.4908 106.956L52.0532 106.983C51.2756 106.983 50.5243 106.729 49.9383 106.269C49.3523 105.808 48.9712 105.172 48.8654 104.478L48.8354 104.084V79.9431H44.5364C42.5458 79.9431 40.6368 79.2309 39.2288 77.9631C37.8209 76.6953 37.0293 74.9756 37.0282 73.1821V63.5219C37.0282 62.753 37.3672 62.0156 37.9707 61.4718C38.5741 60.9281 39.3926 60.6227 40.246 60.6227H43.4681V55.7906C43.4681 55.09 43.7497 54.4132 44.2608 53.8852C44.7719 53.3572 45.4779 53.0138 46.2483 52.9185L46.6859 52.8914C47.4635 52.8914 48.2147 53.1452 48.8008 53.6057C49.3868 54.0662 49.7679 54.7023 49.8737 55.3963L49.9037 55.7906V60.6227H54.1726V55.7906C54.173 55.0889 54.4558 54.411 54.9686 53.8829C55.4814 53.3547 56.1895 53.012 56.9614 52.9185L57.3904 52.8914L56.9614 52.9185H56.9571Z" fill="#0378D6"/>
</g>
<defs>
<clipPath id="clip0_341_1686">
<rect width="85.8123" height="53.843" fill="white" transform="translate(37.0282 53.0017)"/>
</clipPath>
</defs>
</svg>
