<svg width="164" height="164" viewBox="0 0 164 164" fill="none" xmlns="http://www.w3.org/2000/svg">
<circle cx="81.6629" cy="81.5543" r="79.0543" stroke="#0378D6" stroke-width="5"/>
<g clip-path="url(#clip0_341_1715)">
<path d="M82.135 47.9539C63.8516 47.9539 48.9038 62.9017 48.9038 81.1851C48.9038 99.4686 63.8516 114.416 82.135 114.416C100.418 114.416 115.366 99.4686 115.366 81.1851C115.366 62.9017 100.578 47.9539 82.135 47.9539ZM97.4214 95.973C96.7589 96.9679 95.5916 97.3023 94.5967 96.6314C86.7874 91.8191 76.9863 90.8222 65.347 93.4745C64.1902 93.8172 63.1932 92.9864 62.8568 91.9791C62.5328 90.8222 63.3552 89.8273 64.3501 89.493C76.9863 86.6683 87.9547 87.8252 96.5865 93.1484C97.7558 93.6469 97.9157 94.9761 97.4193 95.973H97.4214ZM101.411 86.8324C100.578 88.0017 99.085 88.5002 97.9157 87.6652C88.9495 82.18 75.3185 80.5268 64.859 83.8457C63.5276 84.1697 62.0239 83.5113 61.6999 82.1779C61.3655 80.8487 62.0239 79.3554 63.3552 79.021C75.4929 75.3635 90.4408 77.2016 100.74 83.5093C101.746 84.0077 102.244 85.6714 101.411 86.8303V86.8324ZM101.748 77.5297C91.1033 71.2095 73.3288 70.5512 63.1932 73.7102C61.5296 74.2066 59.8722 73.2117 59.3737 71.708C58.8773 70.0527 59.8722 68.387 61.3655 67.8885C73.1688 64.3971 92.605 65.0659 104.907 72.3768C106.4 73.2097 106.894 75.2014 106.064 76.6948C105.231 77.8641 103.239 78.3584 101.746 77.5276L101.748 77.5297Z" fill="#0378D6"/>
</g>
<defs>
<clipPath id="clip0_341_1715">
<rect width="66.4625" height="66.4625" fill="white" transform="translate(48.9038 47.9539)"/>
</clipPath>
</defs>
</svg>
