<svg width="164" height="164" viewBox="0 0 164 164" fill="none" xmlns="http://www.w3.org/2000/svg">
<circle cx="81.88" cy="81.5543" r="79.0543" stroke="#0378D6" stroke-width="5"/>
<g clip-path="url(#clip0_341_1701)">
<path d="M120.893 67.0151C98.7525 43.2978 64.3173 43.3064 42.1853 67.0151C41.353 67.9066 41.3368 69.4162 42.1416 70.341L46.4205 75.2576C47.1878 76.1405 48.4225 76.1593 49.2198 75.3126C67.4553 55.9648 95.6208 55.9604 113.86 75.3126C114.657 76.1593 115.892 76.139 116.659 75.2576L120.938 70.341C121.742 69.4162 121.726 67.9066 120.893 67.0151ZM106.867 83.4465C92.4628 68.694 70.5995 68.7099 56.2118 83.4465C55.3495 84.3294 55.322 85.8621 56.1406 86.7971L60.4445 91.7166C61.1943 92.5734 62.4015 92.6313 63.2001 91.8323C73.6912 81.3291 89.4111 81.3523 99.8773 91.8323C100.676 92.6313 101.883 92.5748 102.633 91.7166L106.937 86.7971C107.757 85.8621 107.728 84.328 106.867 83.4465Z" fill="#0378D6"/>
<ellipse cx="81.4245" cy="104.814" rx="8.61855" ry="8.70307" fill="#0378D6"/>
</g>
<defs>
<clipPath id="clip0_341_1701">
<rect width="79.9232" height="64.7799" fill="white" transform="translate(41.5493 48.7952)"/>
</clipPath>
</defs>
</svg>
